<svg xmlns="http://www.w3.org/2000/svg" viewBox="0 0 256 256" role="img" aria-labelledby="title desc">
  <title id="title">rm-airbag</title>
  <desc id="desc">A shield containing rm above a soft Trash landing pad</desc>
  <defs>
    <linearGradient id="shield" x1="0" y1="0" x2="1" y2="1">
      <stop offset="0" stop-color="#4f8cff"/>
      <stop offset="1" stop-color="#6557e8"/>
    </linearGradient>
  </defs>
  <path d="M128 16 218 50v67c0 59-35 101-90 123-55-22-90-64-90-123V50z" fill="url(#shield)"/>
  <path d="M128 31 202 59v58c0 48-27 84-74 106-47-22-74-58-74-106V59z" fill="none" stroke="#fff" stroke-opacity=".35" stroke-width="4"/>
  <text x="128" y="112" text-anchor="middle" font-family="ui-monospace, SFMono-Regular, Menlo, monospace" font-size="56" font-weight="700" fill="#fff">rm</text>
  <path d="M79 164c0-16 13-29 29-29h40c16 0 29 13 29 29v12H79z" fill="#fff" opacity=".96"/>
  <path d="M91 176h74l-7 30H98z" fill="#dfe8ff"/>
  <path d="M112 149h32" stroke="#6557e8" stroke-width="7" stroke-linecap="round"/>
</svg>
